PathFileType	4	(X/Y/Z)	C:/Users/opensim2020/Desktop/walking_exp_matlab/subject01_walking09_straight_02.trc																																																																																																																															
DataRate	CameraRate	NumFrames	NumMarkers	Units	OrigDataRate	OrigDataStartFrame	OrigNumFrames																																																																																																																											
100	100	4	43	mm	100	1981	362																																																																																																																											
Frame#	Time	LFHD			RFHD			LBHD			RBHD			C7			T10			CLAV			STRN			RBAK			LSHO			LUPA			LELB			LFRM			LWRA			LWRB			LFIN			RSHO			RUPA			RELB			RFRM			RWRA			RWRB			RFIN			LASI			RASI			LPSI			RPSI			LTHI			LKNE			LTIB			LANK			LHEE			LTOE			RTHI			RKNE			RTIB			RANK			RHEE			RTOE			*39			*40			*41			*42		
		X1	Y1	Z1	X2	Y2	Z2	X3	Y3	Z3	X4	Y4	Z4	X5	Y5	Z5	X6	Y6	Z6	X7	Y7	Z7	X8	Y8	Z8	X9	Y9	Z9	X10	Y10	Z10	X11	Y11	Z11	X12	Y12	Z12	X13	Y13	Z13	X14	Y14	Z14	X15	Y15	Z15	X16	Y16	Z16	X17	Y17	Z17	X18	Y18	Z18	X19	Y19	Z19	X20	Y20	Z20	X21	Y21	Z21	X22	Y22	Z22	X23	Y23	Z23	X24	Y24	Z24	X25	Y25	Z25	X26	Y26	Z26	X27	Y27	Z27	X28	Y28	Z28	X29	Y29	Z29	X30	Y30	Z30	X31	Y31	Z31	X32	Y32	Z32	X33	Y33	Z33	X34	Y34	Z34	X35	Y35	Z35	X36	Y36	Z36	X37	Y37	Z37	X38	Y38	Z38	X39	Y39	Z39	X40	Y40	Z40	X41	Y41	Z41	X42	Y42	Z42	X43	Y43	Z43
																																																																																																																																		
91	0.9	-728.3775	1661.96106	-1465.30725	-701.09314	1671.04077	-1355.62256	-844.24084	1623.16589	-1441.28149	-819.26642	1631.91235	-1324.3656	-885.01782	1428.93445	-1391.68848	-917.39551	1134.21338	-1375.38794	-741.4693	1361.4408	-1398.14075	-696.86786	1207.67188	-1402.54358	-932.97693	1233.79395	-1305.93738	-810.95984	1390.29797	-1556.52966	-859.35583	1205.9342	-1632.73535	-890.30322	1059.58704	-1624.2677	-873.76501	948.00293	-1649.67236	-816.13586	819.94244	-1635.94543	-872.97455	826.20593	-1655.8894	-841.8562	746.82605	-1666.33093	-796.711	1392.92676	-1244.151	-834.78479	1191.99353	-1131.74609	-820.66309	1066.38977	-1124.68311	-752.43158	961.88489	-1107.50854	-640.52472	881.86304	-1148.5542	-675.1134	866.48541	-1103.6438	-612.55829	810.19086	-1114.2312	-739.0191	934.0788	-1490.13965	-737.69531	927.08807	-1271.66455	-925.93323	939.46942	-1438.60059	-922.53375	945.17084	-1294.46948	-698.88495	616.24713	-1564.0127	-668.58148	486.99368	-1546.79517	-660.80811	301.53531	-1562.79346	-601.8421	84.26945	-1522.10852	-629.06171	41.26915	-1464.51038	-451.20901	91.60064	-1534.57751	-839.56256	598.83069	-1229.4718	-863.57886	440.96286	-1259.76611	-950.17023	286.98291	-1254.26904	-1020.63959	91.96391	-1309.21277	-1077.23865	62.66768	-1356.41187	-886.83722	39.57711	-1321.66614	-713.56158	1704.58789	-1377.57312	-1973.12537	1023.61371	3101.98462	-2012.4491	1021.98022	3140.65283	NaN	NaN	NaN
92	0.91	-721.46252	1661.51587	-1466.8186	-694.22375	1670.54468	-1357.10327	-837.30493	1622.75806	-1442.76892	-812.33514	1631.50745	-1325.89075	-878.08215	1428.44348	-1393.25452	-910.31226	1133.7041	-1377.21912	-734.53699	1361.06873	-1399.59021	-689.83032	1207.21936	-1403.67261	-926.12469	1233.27576	-1307.58472	-803.90625	1389.7644	-1557.96558	-852.32513	1205.48352	-1634.27869	-883.11725	1059.0437	-1625.58997	-866.67157	947.46716	-1650.95618	-809.31439	819.26746	-1637.02661	-866.12231	825.61639	-1657.08496	-835.12225	746.04468	-1667.3031	-790.07275	1392.5376	-1245.42615	-828.42761	1191.51379	-1133.31067	-814.02069	1065.90454	-1126.24329	-745.7912	961.48425	-1109.0863	-634.89197	881.29645	-1150.05017	-668.33533	866.03894	-1105.18713	-605.85718	809.70825	-1115.66956	-731.40729	933.53644	-1491.27905	-731.07361	926.75427	-1272.80383	-918.32605	939.32037	-1440.50916	-915.75879	945.4306	-1296.38208	-691.8526	615.35095	-1564.36218	-661.70734	486.30228	-1546.94641	-653.47198	300.78873	-1563.18127	-594.87726	83.22684	-1521.83252	-622.60034	40.28322	-1464.4541	-444.33264	91.03864	-1533.27783	-834.64307	598.76941	-1230.05408	-859.53699	440.97202	-1260.41467	-947.45734	287.8819	-1254.63208	-1020.0174	93.33198	-1308.97778	-1076.79456	64.60032	-1356.07898	-886.64008	39.46853	-1321.32336	-706.57605	1704.22046	-1379.18335	-1972.98547	1024.05176	3101.99438	-2012.53076	1022.05676	3140.62964	NaN	NaN	NaN
93	0.92	-714.49658	1661.06421	-1468.37268	-687.18933	1670.19238	-1358.72168	-830.38715	1622.36475	-1444.38708	-805.37817	1631.13708	-1327.48047	-871.11761	1427.92395	-1394.91284	-903.16254	1133.1748	-1379.06519	-727.53033	1360.50024	-1400.85388	-682.82245	1206.7218	-1404.91064	-919.20593	1232.7876	-1309.31824	-796.72467	1389.30298	-1559.5199	-845.29108	1205.01392	-1635.78064	-875.85333	1058.52917	-1626.9646	-859.45374	946.927	-1652.29089	-802.19141	818.67487	-1638.19128	-858.93286	825.07098	-1658.37561	-827.88416	745.38873	-1668.39783	-783.57532	1392.27258	-1246.99402	-822.00647	1191.04541	-1135.03394	-807.48242	1065.42236	-1127.90405	-739.15155	960.98712	-1110.68152	-628.26257	880.82892	-1151.60437	-661.98987	865.56274	-1106.5675	-599.27509	809.23395	-1117.20679	-723.66357	932.8938	-1492.33081	-724.46411	926.38147	-1273.94287	-910.80829	939.26501	-1442.56018	-908.93188	945.58856	-1298.41443	-684.57922	614.49005	-1564.70166	-654.75903	485.61044	-1547.04321	-646.67859	299.62451	-1563.18176	-589.3642	82.47511	-1521.64612	-617.45056	39.11403	-1464.29187	-438.76868	89.38544	-1531.82092	-829.35931	598.74573	-1230.6925	-855.02838	440.51108	-1260.96973	-944.46869	288.65466	-1254.86096	-1019.24127	94.80663	-1308.57642	-1076.28711	66.63805	-1355.60413	-886.63776	39.60313	-1321.20776	-699.61591	1703.78174	-1380.75928	-1973.19824	1023.42889	3101.87866	-2012.51636	1021.99207	3140.72534	NaN	NaN	NaN
94	0.93	-707.54474	1660.61401	-1470.02039	-680.2796	1669.71936	-1360.32861	-823.45856	1621.88989	-1446.06921	-798.41821	1630.70935	-1329.06201	-864.08295	1427.38879	-1396.62939	-895.901	1132.64575	-1381.08203	-720.49847	1360.04724	-1402.40881	-675.68341	1206.30396	-1406.23547	-912.23926	1232.28198	-1311.13623	-789.4599	1388.81116	-1561.15991	-838.09235	1204.505	-1637.35583	-868.51215	1058.02136	-1628.47192	-852.05579	946.34882	-1653.69812	-794.7934	818.10443	-1639.4104	-851.53705	824.56024	-1659.76855	-820.37225	744.8689	-1669.68274	-776.70239	1391.7616	-1248.55444	-815.61987	1190.63489	-1136.84192	-800.90271	1064.96277	-1129.70972	-732.56183	960.51025	-1112.32764	-622.16364	880.24353	-1153.40894	-655.51563	865.16199	-1108.18506	-592.68298	808.73022	-1118.80127	-715.80316	932.25488	-1493.40637	-717.64478	925.94	-1275.01746	-903.16455	939.12628	-1444.65906	-902.04797	945.69104	-1300.57263	-677.17822	613.83685	-1565.1554	-647.7796	484.91238	-1547.08093	-640.42279	298.69415	-1563.54602	-584.64313	80.57369	-1521.05798	-613.47137	37.81846	-1464.09131	-434.08807	87.22912	-1530.27869	-823.73639	598.5379	-1231.53015	-850.24957	440.64542	-1261.23389	-941.45972	289.5759	-1254.93152	-1018.37921	96.40308	-1308.30298	-1075.68103	68.78761	-1355.26929	-886.49933	39.54761	-1321.03772	-692.67487	1703.39453	-1382.49744	-1973.05554	1023.51849	3102.00195	-2012.5614	1022.06146	3140.68237	NaN	NaN	NaN
